<svg xmlns="http://www.w3.org/2000/svg" viewBox="0 0 64 64" fill="none">
  <defs>
    <linearGradient id="bg" x1="10" y1="6" x2="54" y2="58" gradientUnits="userSpaceOnUse">
      <stop stop-color="#A84458" />
      <stop offset="1" stop-color="#6A2234" />
    </linearGradient>
  </defs>
  <rect width="64" height="64" rx="18" fill="url(#bg)" />
  <path
    d="M18 23.5C18 20.462 20.462 18 23.5 18H40.5C43.538 18 46 20.462 46 23.5V40.5C46 43.538 43.538 46 40.5 46H23.5C20.462 46 18 43.538 18 40.5V23.5Z"
    fill="#FFF6EC"
  />
  <path
    d="M21 26L32 34.25L43 26"
    stroke="#7C3140"
    stroke-linecap="round"
    stroke-linejoin="round"
    stroke-width="3.5"
  />
  <path
    d="M21 39L28 32.75M43 39L36 32.75"
    stroke="#D3A04A"
    stroke-linecap="round"
    stroke-width="3"
  />
  <circle cx="45.5" cy="18.5" r="6.5" fill="#D3A04A" />
  <path d="M42.75 18.5H48.25" stroke="#FFF6EC" stroke-linecap="round" stroke-width="2" />
  <path d="M45.5 15.75V21.25" stroke="#FFF6EC" stroke-linecap="round" stroke-width="2" />
</svg>
